<svg height="71" viewBox="0 0 251 71" width="251" xmlns="http://www.w3.org/2000/svg"><g fill="none" fill-rule="evenodd"><path d="m93.8521739 26.1809734v-4.7824321h23.0157011v4.7824321h-8.413863v26.1262495h-6.232492v-26.1262495zm38.2407881 26.4805038c-3.59112 0-6.514426-1.158695-8.770006-3.4761197s-3.383353-5.3802171-3.383353-9.1884691 1.135193-6.856284 3.405612-9.1441873c2.270419-2.2879034 5.208564-3.4318379 8.814524-3.4318379s6.566363 1.1144136 8.881301 3.3432743c2.314937 2.2288607 3.472388 5.2030904 3.472388 8.9227785 0 .8561186-.059357 1.6531827-.178071 2.391216h-17.985191c.148394 1.594152.741958 2.8783108 1.780712 3.8525148s2.359435 1.4612987 3.962084 1.4612987c2.166544 0 3.769169-.8856267 4.807922-2.6569068h6.766706c-.712289 2.3321854-2.092327 4.2362828-4.140156 5.7123495s-4.525961 2.214089-7.434472 2.214089zm4.117896-18.5097836c-1.11295-.974204-2.45589-1.4612987-4.02886-1.4612987s-2.886232.4870947-3.939825 1.4612987-1.684256 2.2731232-1.892007 3.8967965h11.663663c-.089036-1.6236733-.69002-2.9225925-1.802971-3.8967965zm19.521055-6.3765762v4.3396144c1.662006-3.1292614 4.065943-4.6938686 7.211883-4.6938686v6.3765762h-1.558123c-1.869757 0-3.279473.464954-4.229191 1.394876-.949717.929922-1.424569 2.5314303-1.424569 4.804573v12.3103345h-6.27701v-24.5321055zm17.940672 0v3.6753877c1.57297-2.6864414 4.125299-4.0296419 7.657062-4.0296419 1.869756 0 3.539157.4280529 5.008252 1.2841716 1.469094.8561187 2.604287 2.0812356 3.405611 3.6753876.860682-1.5351093 2.040392-2.7454658 3.539165-3.6311058 1.498774-.88564 3.183013-1.3284534 5.05277-1.3284534 2.93819 0 5.305029.9151476 7.100589 2.7454703s2.693327 4.3986402 2.693327 7.7050295v14.4358599h-6.232492v-13.5502243c0-1.9188867-.489691-3.387551-1.469087-4.406037-.979397-1.018486-2.314917-1.5277214-4.006602-1.5277214s-3.034625.5092354-4.028861 1.5277214-1.491346 2.4871503-1.491346 4.406037v13.5502243h-6.232492v-13.5502243c0-1.9188867-.489691-3.387551-1.469087-4.406037s-2.314917-1.5277214-4.006602-1.5277214-3.034625.5092354-4.02886 1.5277214c-.994236 1.018486-1.491347 2.4871503-1.491347 4.406037v13.5502243h-6.277009v-24.5321055zm40.911856 24.5321055v-32.7685163h6.27701v32.7685163zm19.587831-.4428178-9.660362-24.0892877h7.033812l6.27701 17.4470209 6.633152-17.4470209h6.544116l-15.403158 36.1339316h-6.544116z" fill="#282828"/><path d="m36.3568791 0c20.0793499 0 36.3568791 15.8938914 36.3568791 35.5s-16.2775292 35.5-36.3568791 35.5-36.3568791-15.8938914-36.3568791-35.5 16.2775292-35.5 36.3568791-35.5zm16.0257296 19.1891892h-21.7662895v38.3783784l21.0487195-28.7837838-6.2987195-.0005946z" fill="#4672ff"/></g></svg>